<svg width="360" height="120" viewBox="0 0 360 120" fill="none" xmlns="http://www.w3.org/2000/svg">
	<path d="M359.995 119.956H0.919998V0.919998H133.632V5.12H5.12V115.756H355.795V5.12H227.275V0.919998H359.995V119.956Z" fill="#F2CF7D"></path>
	<path d="M42.58 73.2497C41.3667 73.2497 40.23 73.0731 39.17 72.7197C38.11 72.3664 37.1967 71.7831 36.43 70.9697C35.6633 70.1497 35.06 69.0831 34.62 67.7697C34.1867 66.4564 33.97 64.8397 33.97 62.9197V48.8597H37V62.9897C37 64.4231 37.1433 65.6264 37.43 66.5997C37.7233 67.5731 38.12 68.3531 38.62 68.9397C39.12 69.5264 39.71 69.9464 40.39 70.1997C41.07 70.4531 41.8 70.5797 42.58 70.5797C43.3867 70.5797 44.13 70.4531 44.81 70.1997C45.49 69.9464 46.0867 69.5264 46.6 68.9397C47.1133 68.3531 47.5133 67.5731 47.8 66.5997C48.0933 65.6264 48.24 64.4231 48.24 62.9897V48.8597H51.16V62.9197C51.16 64.8397 50.9433 66.4564 50.51 67.7697C50.07 69.0831 49.4667 70.1497 48.7 70.9697C47.9333 71.7831 47.0267 72.3664 45.98 72.7197C44.9333 73.0731 43.8 73.2497 42.58 73.2497Z" fill="#F2CF7D"></path>
	<path d="M69.31 73.2497C67.63 73.2497 66.07 72.9331 64.63 72.2997C63.1967 71.6664 61.9567 70.8031 60.91 69.7097L62.74 67.5897C63.5867 68.4897 64.59 69.2131 65.75 69.7597C66.9033 70.3064 68.1 70.5797 69.34 70.5797C70.9267 70.5797 72.1567 70.2231 73.03 69.5097C73.91 68.7897 74.35 67.8464 74.35 66.6797C74.35 66.0664 74.2467 65.5464 74.04 65.1197C73.8333 64.6931 73.5533 64.3297 73.2 64.0297C72.8467 63.7231 72.4267 63.4497 71.94 63.2097C71.4533 62.9631 70.93 62.7064 70.37 62.4397L66.94 60.9397C66.38 60.6997 65.8067 60.4097 65.22 60.0697C64.6333 59.7297 64.11 59.3164 63.65 58.8297C63.19 58.3431 62.8133 57.7631 62.52 57.0897C62.2267 56.4231 62.08 55.6497 62.08 54.7697C62.08 53.8697 62.27 53.0297 62.65 52.2497C63.0233 51.4764 63.5467 50.8031 64.22 50.2297C64.8867 49.6564 65.6767 49.2131 66.59 48.8997C67.5033 48.5797 68.5067 48.4197 69.6 48.4197C71.0333 48.4197 72.36 48.6931 73.58 49.2397C74.8 49.7864 75.8333 50.4997 76.68 51.3797L75.04 53.3497C74.3067 52.6431 73.4967 52.0897 72.61 51.6897C71.7233 51.2897 70.72 51.0897 69.6 51.0897C68.26 51.0897 67.1833 51.3997 66.37 52.0197C65.5567 52.6397 65.15 53.4964 65.15 54.5897C65.15 55.1764 65.2633 55.6697 65.49 56.0697C65.7233 56.4697 66.0333 56.8231 66.42 57.1297C66.8133 57.4297 67.24 57.6964 67.7 57.9297C68.1667 58.1631 68.6433 58.3764 69.13 58.5697L72.52 60.0297C73.2 60.3231 73.8467 60.6564 74.46 61.0297C75.0667 61.4097 75.59 61.8497 76.03 62.3497C76.4633 62.8497 76.81 63.4331 77.07 64.0997C77.3233 64.7731 77.45 65.5464 77.45 66.4197C77.45 67.3664 77.26 68.2564 76.88 69.0897C76.5067 69.9164 75.9667 70.6397 75.26 71.2597C74.5533 71.8797 73.7 72.3664 72.7 72.7197C71.7067 73.0731 70.5767 73.2497 69.31 73.2497Z" fill="#F2CF7D"></path>
	<path d="M90.59 72.8097H87.56V48.8597H90.59V58.8997H101.73V48.8597H104.8V72.8097H101.73V61.5297H90.59V72.8097Z" fill="#F2CF7D"></path>
	<path d="M119.8 72.8097H116.77V48.8597H119.8V60.8697H119.91L129.88 48.8597H133.31L125.83 57.9897L134.48 72.8097H131.08L123.93 60.3597L119.8 65.2197V72.8097Z" fill="#F2CF7D"></path>
	<path d="M151.42 73.2497C149.913 73.2497 148.533 72.9564 147.28 72.3697C146.027 71.7831 144.947 70.9497 144.04 69.8697C143.14 68.7897 142.443 67.4764 141.95 65.9297C141.45 64.3831 141.2 62.6464 141.2 60.7197C141.2 58.7997 141.45 57.0797 141.95 55.5597C142.443 54.0397 143.14 52.7497 144.04 51.6897C144.947 50.6297 146.027 49.8197 147.28 49.2597C148.533 48.6997 149.913 48.4197 151.42 48.4197C152.927 48.4197 154.307 48.7064 155.56 49.2797C156.813 49.8531 157.897 50.6664 158.81 51.7197C159.723 52.7797 160.43 54.0697 160.93 55.5897C161.43 57.1164 161.68 58.8264 161.68 60.7197C161.68 62.6464 161.43 64.3831 160.93 65.9297C160.43 67.4764 159.723 68.7897 158.81 69.8697C157.897 70.9497 156.813 71.7831 155.56 72.3697C154.307 72.9564 152.927 73.2497 151.42 73.2497ZM151.42 70.5797C152.493 70.5797 153.46 70.3497 154.32 69.8897C155.187 69.4231 155.93 68.7597 156.55 67.8997C157.17 67.0331 157.65 65.9997 157.99 64.7997C158.33 63.5931 158.5 62.2331 158.5 60.7197C158.5 59.2397 158.33 57.9031 157.99 56.7097C157.65 55.5164 157.17 54.5064 156.55 53.6797C155.93 52.8531 155.187 52.2131 154.32 51.7597C153.46 51.3131 152.493 51.0897 151.42 51.0897C150.347 51.0897 149.38 51.3131 148.52 51.7597C147.653 52.2131 146.91 52.8531 146.29 53.6797C145.67 54.5064 145.19 55.5164 144.85 56.7097C144.51 57.9031 144.34 59.2397 144.34 60.7197C144.34 62.2331 144.51 63.5931 144.85 64.7997C145.19 65.9997 145.67 67.0331 146.29 67.8997C146.91 68.7597 147.653 69.4231 148.52 69.8897C149.38 70.3497 150.347 70.5797 151.42 70.5797Z" fill="#F2CF7D"></path>
	<path d="M179.79 72.8097H176.25L168.58 48.8597H171.83L175.66 61.7797C176.1 63.2197 176.483 64.5464 176.81 65.7597C177.143 66.9797 177.54 68.2964 178 69.7097H178.14C178.58 68.2964 178.97 66.9797 179.31 65.7597C179.65 64.5464 180.03 63.2197 180.45 61.7797L184.28 48.8597H187.38L179.79 72.8097Z" fill="#F2CF7D"></path>
	<path d="M199.69 59.4097L198.55 63.0597H205.75L204.61 59.4097C204.177 58.0697 203.763 56.7364 203.37 55.4097C202.983 54.0831 202.597 52.7264 202.21 51.3397H202.06C201.693 52.7264 201.317 54.0831 200.93 55.4097C200.537 56.7364 200.123 58.0697 199.69 59.4097ZM195.49 72.8097H192.38L200.49 48.8597H203.92L212.03 72.8097H208.78L206.51 65.5097H197.79L195.49 72.8097Z" fill="#F2CF7D"></path>
	<path d="M241.56 72.8097H238.5V51.4097H231.27V48.8597H248.79V51.4097H241.56V72.8097Z" fill="#F2CF7D"></path>
	<path d="M272.67 72.8097H258.5V48.8597H272.3V51.4097H261.53V58.9397H270.63V61.5297H261.53V70.2197H272.67V72.8097Z" fill="#F2CF7D"></path>
	<path d="M287.27 59.4097L286.14 63.0597H293.33L292.2 59.4097C291.767 58.0697 291.353 56.7364 290.96 55.4097C290.573 54.0831 290.183 52.7264 289.79 51.3397H289.65C289.283 52.7264 288.907 54.0831 288.52 55.4097C288.127 56.7364 287.71 58.0697 287.27 59.4097ZM283.08 72.8097H279.97L288.08 48.8597H291.51L299.61 72.8097H296.36L294.1 65.5097H285.38L283.08 72.8097Z" fill="#F2CF7D"></path>
	<path d="M311.15 72.8097H308.41V48.8597H312.06L316.66 61.6397C316.953 62.4664 317.24 63.2997 317.52 64.1397C317.8 64.9797 318.087 65.8131 318.38 66.6397H318.53C318.817 65.8131 319.09 64.9797 319.35 64.1397C319.603 63.2997 319.877 62.4664 320.17 61.6397L324.7 48.8597H328.38V72.8097H325.54V59.6297C325.54 58.5564 325.587 57.3764 325.68 56.0897C325.78 54.7964 325.867 53.6164 325.94 52.5497H325.79L323.89 57.9897L319.37 70.3997H317.36L312.83 57.9897L310.93 52.5497H310.79C310.863 53.6164 310.94 54.7964 311.02 56.0897C311.107 57.3764 311.15 58.5564 311.15 59.6297V72.8097Z" fill="#F2CF7D"></path>
</svg>