<svg xmlns="http://www.w3.org/2000/svg" viewBox="0 0 29 12"><path d="M1.283 8.867 0 10.283C1.15 11.433 2.533 12 4.15 12c2.3 0 4.017-1.467 4.017-3.533 0-1.467-.767-2.35-1.717-2.9-.383-.217-.767-.384-1.167-.567-1.25-.533-2.45-.817-2.45-1.75C2.833 2.6 3.367 2 4.5 2c.817 0 1.567.3 2.183.75L7.8 1.167A5.403 5.403 0 0 0 4.433 0C2.383 0 .583 1.217.583 3.333c0 1.334.684 2.167 1.617 2.7.45.267.933.467 1.45.65 1.183.434 2.267.85 2.267 1.8C5.917 9.5 5 10 4.117 10c-1.067 0-2.1-.483-2.834-1.133ZM12.06.167v11.666h2.25V.167h-2.25ZM23.773 10c-.85 0-1.567-.333-2.083-.883-.4-.45-.634-1-.634-2V.167h-2.25V6.95c0 1.533.367 2.583 1.084 3.383C20.823 11.4 22.223 12 23.773 12c1.55 0 2.95-.6 3.883-1.667.717-.8 1.084-1.85 1.084-3.383V.167h-2.25v6.95c0 1-.234 1.55-.634 2a2.799 2.799 0 0 1-2.083.883Z" fill="#000"/></svg>