<svg width="40" height="51" viewBox="0 0 40 51" fill="none" xmlns="http://www.w3.org/2000/svg">
	<g clip-path="url(#clip0_1879_2506)">
		<path d="M39.0194 1.16018L37.1531 4.97045L35.2869 8.78071C35.2869 8.78071 35.1314 9.01399 34.9758 9.16951C34.9758 9.16951 34.8203 9.16951 34.7426 9.24727C34.7426 9.24727 34.6648 9.24727 34.587 9.24727C34.587 9.24727 34.5093 9.24727 34.4315 9.24727C34.276 9.24727 34.1205 9.24727 33.965 9.09175C33.8094 8.93623 33.7317 8.78071 33.7317 8.54743C33.7317 8.23639 33.6539 7.84758 33.5761 7.38102C33.5761 7.14774 33.5761 6.8367 33.5761 6.60342C33.4984 5.82581 33.2651 5.04821 32.7985 4.2706C32.332 3.493 31.7099 2.94867 31.0878 2.63763C30.4657 2.24883 29.8436 1.93779 29.4548 1.62674C29.2993 1.47122 29.1438 1.3157 29.1438 1.08242C29.1438 0.84914 29.1438 0.693619 29.1438 0.460337C29.1438 0.460337 29.2993 0.227056 29.4548 0.149295C29.6104 0.0715349 29.7659 -0.00622559 29.9214 -0.00622559H38.4751C38.4751 -0.00622559 38.9416 0.0715349 39.0194 0.304816C39.1749 0.538098 39.1749 0.771379 39.0194 1.08242V1.16018Z" fill="black"></path>
		<path d="M27.2775 26.1991L18.8794 45.0949C18.8794 45.0949 18.1795 46.7278 16.5465 48.1275C15.3024 49.1384 13.5916 50.0715 11.2588 50.0715C9.9369 50.0715 8.38169 49.7605 6.51544 48.9829C4.4159 48.1275 3.01621 47.0389 2.08309 45.8725C-1.18285 41.9844 0.838919 37.2411 0.838919 37.2411L15.7689 3.57076C15.7689 3.57076 15.7689 3.02643 15.6134 2.79315C14.9913 2.24883 14.5248 1.86002 14.136 1.62674C13.9027 1.47122 13.8249 1.23794 13.8249 1.00466C13.8249 0.849138 13.8249 0.771378 13.8249 0.615857C13.9027 0.382575 14.136 0.0715332 14.5248 0.0715332H25.489C26.0333 0.0715332 26.4221 0.615857 26.1888 1.08242C23.7783 6.60342 12.1142 32.9642 9.31481 39.2628C8.69273 40.5848 9.78138 41.1291 9.85914 41.1291C11.1033 41.6734 11.7254 40.3515 11.7254 40.3515L22.4563 16.0124C22.4563 16.0124 22.7674 15.4681 23.0007 15.3904C23.0784 15.3126 23.2339 15.2348 23.3895 15.2348C23.545 15.2348 23.6227 15.2348 23.7783 15.3126C25.178 15.9347 26.1888 16.79 26.8887 17.6454C29.4548 21.1446 27.2775 26.0435 27.2775 26.0435V26.1991Z" fill="black"></path>
	</g>
	<defs>
		<clipPath id="clip0_1879_2506">
			<rect width="38.8802" height="50" fill="white" transform="translate(0.216797 0.0715332)"></rect>
		</clipPath>
	</defs>
</svg>